<svg width="32" height="32" viewBox="0 0 32 32" fill="none" xmlns="http://www.w3.org/2000/svg">
<path d="M9.62358 7.76371L12.8343 4.55371L16.045 7.76371L12.8343 10.9737L9.62358 7.76371ZM7.76318 16.0437L4.55249 12.8337L7.76318 9.62371L10.9739 12.8337L7.76318 16.0437Z" fill="#5CB25D"/>
<path d="M13.8255 2.41348L21.3531 9.94948L21.4332 9.86948C21.5908 9.71516 21.802 9.62766 22.0227 9.62524C22.2433 9.62282 22.4564 9.70565 22.6174 9.85648L22.6234 9.86248L23.4906 10.7295C23.7957 11.0345 23.8057 11.4995 23.5736 11.8235L23.5696 11.8305L23.4266 12.0225L29.5879 18.1825C30.138 18.7325 30.138 19.6125 29.5879 20.1625L20.1559 29.5925C19.6058 30.1425 18.7256 30.1425 18.1755 29.5925L13.7275 25.1455C13.6536 25.2386 13.5609 25.315 13.4554 25.3696C13.3499 25.4243 13.234 25.4561 13.1153 25.4628C12.9966 25.4695 12.8779 25.451 12.7669 25.4086C12.6559 25.3661 12.5551 25.3006 12.4712 25.2165L9.87068 22.6165C9.71632 22.4588 9.62881 22.2477 9.62638 22.0271C9.62396 21.8065 9.70682 21.5935 9.85767 21.4325L9.86367 21.4255L9.94069 21.3495L2.41308 13.8235C1.86296 13.2735 1.86296 12.3935 2.41308 11.8435L11.8451 2.41348C12.3952 1.86348 13.2754 1.86348 13.8255 2.41348ZM20.4069 10.8935L18.6516 9.13848C18.5964 9.08156 18.5303 9.03631 18.4573 9.00541C18.3842 8.97451 18.3058 8.95859 18.2265 8.95859C18.1472 8.95859 18.0687 8.97451 17.9957 9.00541C17.9226 9.03631 17.8566 9.08156 17.8014 9.13848L14.2206 12.7185C14.1639 12.7748 14.1188 12.8418 14.0881 12.9156C14.0574 12.9894 14.0416 13.0685 14.0416 13.1485C14.0416 13.2284 14.0574 13.3076 14.0881 13.3814C14.1188 13.4552 14.1639 13.5222 14.2206 13.5785L15.97 15.3275L16.5801 14.7175L15.0148 13.1525L18.2255 9.93248L19.7948 11.5065L20.4069 10.8935ZM15.3308 15.9655L13.5765 14.2115C13.5213 14.1546 13.4552 14.1093 13.3822 14.0784C13.3092 14.0475 13.2307 14.0316 13.1514 14.0316C13.0721 14.0316 12.9936 14.0475 12.9206 14.0784C12.8476 14.1093 12.7815 14.1546 12.7263 14.2115L9.14552 17.7915L9.14052 17.7965L9.13552 17.8015C8.89547 18.0315 8.89547 18.4115 9.13552 18.6515L10.8879 20.4035L11.504 19.7875L9.93369 18.2235L13.1544 15.0135L14.7187 16.5765L15.3308 15.9655ZM8.82345 8.19348L12.4042 11.7735C12.6443 12.0135 13.0244 12.0135 13.2544 11.7635L16.8352 8.18348C16.8921 8.12931 16.9374 8.06415 16.9683 7.99195C16.9992 7.91975 17.0152 7.84202 17.0152 7.76348H17.0252C17.0252 7.61348 16.9652 7.45348 16.8452 7.33348L13.2644 3.75348C13.2081 3.69663 13.1411 3.65151 13.0673 3.62072C12.9935 3.58992 12.9143 3.57406 12.8343 3.57406C12.7543 3.57406 12.6751 3.58992 12.6013 3.62072C12.5275 3.65151 12.4605 3.69663 12.4042 3.75348L8.82345 7.34348C8.5834 7.57348 8.5834 7.95348 8.82345 8.19348ZM3.75236 13.2635L7.33313 16.8435C7.57318 17.0835 7.95326 17.0835 8.18331 16.8435L11.7641 13.2635C11.8222 13.2082 11.8682 13.1414 11.8992 13.0674C11.9302 12.9933 11.9455 12.9137 11.9441 12.8335H11.9541C11.9541 12.6735 11.8941 12.5235 11.7741 12.4035L8.19332 8.82348C8.13812 8.76656 8.07205 8.72132 7.99902 8.69041C7.926 8.65951 7.84752 8.64359 7.76822 8.64359C7.68893 8.64359 7.61045 8.65951 7.53742 8.69041C7.4644 8.72132 7.39833 8.76656 7.34313 8.82348L3.75236 12.4135C3.51231 12.6435 3.51231 13.0235 3.75236 13.2635ZM10.6869 22.0175L13.0494 24.3805L22.6874 11.3405L22.0323 10.6855L10.6869 22.0175Z" fill="#5CB25D"/>
</svg>
