<svg width="28" height="28" viewBox="0 0 28 28" fill="none" xmlns="http://www.w3.org/2000/svg">
<path d="M24.162 3.70945C20.9693 2.44617 17.3523 1.75 13.9759 1.75C10.4999 1.75 6.87742 2.43523 3.77336 3.67828C2.6632 4.12836 2.47234 4.92188 2.66375 5.51359L2.88633 6.07031C2.93 6.17934 2.99516 6.27845 3.07795 6.36175C3.16074 6.44506 3.25944 6.51084 3.36819 6.55519C3.47694 6.59954 3.5935 6.62154 3.71094 6.61988C3.82837 6.61822 3.94426 6.59294 4.05172 6.54555C4.64234 6.28523 5.36039 5.96914 5.52828 5.90133C7.93508 4.90219 10.8669 4.375 13.9999 4.375C17.1428 4.375 19.9111 4.88031 22.4634 5.91992C22.7051 6.01836 23.2771 6.27102 23.8945 6.54664C24.0018 6.59454 24.1175 6.62036 24.235 6.62256C24.3524 6.62477 24.469 6.60331 24.578 6.55947C24.6869 6.51564 24.786 6.45032 24.8691 6.36741C24.9523 6.28449 25.0179 6.18569 25.0621 6.07688L25.2655 5.57812L25.2841 5.52891C25.4728 4.97055 25.2918 4.15898 24.162 3.70945Z" fill="#5CB25D"/>
<path d="M22.3771 7.70328C19.8883 6.70086 16.8264 6.125 13.9761 6.125C11.0999 6.12689 8.24906 6.6626 5.5684 7.70492C5.53942 7.71641 5.45574 7.75305 5.33379 7.80773C5.22835 7.85499 5.13332 7.92266 5.05417 8.00683C4.97503 8.09101 4.91334 8.19003 4.87266 8.29817C4.83199 8.40632 4.81313 8.52145 4.81719 8.63692C4.82124 8.75239 4.84813 8.86591 4.89629 8.97094C5.11504 9.44727 5.41145 10.0964 5.74395 10.8243C7.54371 14.7656 10.8944 22.0938 12.4284 25.2656C12.5705 25.5615 12.7936 25.8111 13.0718 25.9853C13.35 26.1595 13.6719 26.2513 14.0001 26.25C14.3289 26.2513 14.6513 26.1592 14.9298 25.9843C15.2082 25.8094 15.4313 25.5591 15.5729 25.2623L15.5762 25.2552L23.0848 8.98188C23.1345 8.87538 23.1621 8.75995 23.166 8.64251C23.17 8.52506 23.1501 8.40804 23.1077 8.29847C23.0652 8.1889 23.001 8.08904 22.919 8.0049C22.837 7.92075 22.7388 7.85406 22.6304 7.80883C22.5068 7.75687 22.4198 7.72078 22.3843 7.70656L22.3771 7.70328ZM10.6139 12.2462C10.2588 12.2693 9.9051 12.1837 9.59994 12.0007C9.29478 11.8177 9.05266 11.546 8.90587 11.2219C8.75907 10.8977 8.71457 10.5365 8.77829 10.1865C8.84202 9.83638 9.01095 9.51405 9.26256 9.26244C9.51417 9.01083 9.8365 8.84191 10.1866 8.77818C10.5366 8.71445 10.8978 8.75895 11.222 8.90575C11.5461 9.05255 11.8178 9.29467 12.0008 9.59982C12.1838 9.90498 12.2694 10.2587 12.2463 10.6138C12.2187 11.0376 12.0378 11.437 11.7374 11.7373C11.4371 12.0377 11.0377 12.2185 10.6139 12.2462ZM14.1139 19.2462C13.7588 19.2693 13.4051 19.1837 13.0999 19.0007C12.7948 18.8177 12.5527 18.546 12.4059 18.2219C12.2591 17.8977 12.2146 17.5365 12.2783 17.1865C12.342 16.8364 12.511 16.5141 12.7626 16.2624C13.0142 16.0108 13.3365 15.8419 13.6866 15.7782C14.0366 15.7144 14.3978 15.7589 14.722 15.9057C15.0461 16.0525 15.3178 16.2947 15.5008 16.5998C15.6838 16.905 15.7694 17.2587 15.7463 17.6137C15.7187 18.0376 15.5378 18.437 15.2374 18.7373C14.9371 19.0377 14.5377 19.2185 14.1139 19.2462ZM17.6139 13.1212C17.2588 13.1443 16.9051 13.0587 16.5999 12.8757C16.2948 12.6927 16.0527 12.421 15.9059 12.0969C15.7591 11.7727 15.7146 11.4115 15.7783 11.0615C15.842 10.7114 16.011 10.3891 16.2626 10.1374C16.5142 9.88583 16.8365 9.71691 17.1866 9.65318C17.5366 9.58945 17.8978 9.63395 18.222 9.78075C18.5461 9.92755 18.8178 10.1697 19.0008 10.4748C19.1838 10.78 19.2694 11.1337 19.2463 11.4888C19.2187 11.9126 19.0378 12.312 18.7374 12.6123C18.4371 12.9127 18.0377 13.0935 17.6139 13.1212Z" fill="#5CB25D"/>
</svg>
